<svg width="156" height="56" viewBox="0 0 156 56" fill="none" xmlns="http://www.w3.org/2000/svg">
<g clip-path="url(#clip0_9434_9175)">
<path d="M65.5035 15.3662H55.827V21.1887H63.4086V24.6736H55.827V30.8794H65.5035V34.4596H51.1328V11.5605H65.5035V15.3662Z" fill="#242F65"/>
<path d="M66.9632 18.2756L72.2288 26.1926L66.7246 34.4603L70.8497 34.5555C70.8497 34.5555 71.5007 34.2599 71.9356 33.413C71.9356 33.413 74.9648 28.8382 74.853 28.3998L76.5577 31.2459C76.5577 31.2459 77.9145 33.9968 78.8488 34.4853L83.4237 34.5104L77.9518 25.9395L83.1951 18.248H78.9532C78.9532 18.248 78.0412 18.7115 77.1044 20.776C77.1044 20.776 75.3674 23.5093 75.3525 23.9102C75.3525 23.9102 72.6165 18.912 71.466 18.3282L66.9607 18.2806L66.9632 18.2756Z" fill="#242F65"/>
<path d="M85.1973 18.2445L85.2768 39.8057H89.5907V33.2967C89.5907 33.2967 92.7318 36.5913 97.2669 33.5197C97.2669 33.5197 99.6947 32.2395 100.217 27.7799C100.217 27.7799 100.741 22.4385 98.6783 20.2638C98.6783 20.2638 95.0155 15.3708 89.2876 20.4066C89.2876 20.4066 89.0018 18.3798 87.9879 18.242H85.1973V18.2445Z" fill="#242F65"/>
<path d="M89.5605 24.2192V28.774C89.5605 29.9565 90.2986 31.0213 91.4119 31.3971C92.8457 31.8807 95.1642 31.7228 95.8003 27.7944C95.855 27.4487 95.8674 27.0052 95.8749 26.8373C95.9171 25.73 95.9171 22.5331 94.3839 21.6713C94.3839 21.6713 92.5972 20.6315 90.7086 21.9644C89.983 22.4755 89.5605 23.3248 89.5605 24.2192Z" fill="white"/>
<path d="M103.235 18.2447L103.141 34.5571H107.44V24.5632C107.44 24.5632 108.044 22.3735 109.897 22.1155C109.897 22.1155 111.356 21.9075 112.101 22.2107C112.101 22.2107 112.735 22.3234 112.815 21.5543L113.068 18.4677C113.068 18.4677 112.37 17.5707 110.198 18.1319C110.198 18.1319 108.516 18.4526 107.184 20.948C107.184 20.948 107.089 18.3248 106.138 18.2772L103.235 18.2447Z" fill="#242F65"/>
<path d="M122.238 35.0505C126.97 35.0505 130.806 31.1829 130.806 26.412C130.806 21.641 126.97 17.7734 122.238 17.7734C117.506 17.7734 113.67 21.641 113.67 26.412C113.67 31.1829 117.506 35.0505 122.238 35.0505Z" fill="#242F65"/>
<path d="M122.237 31.5912C124.492 31.5912 126.32 29.2413 126.32 26.3425C126.32 23.4437 124.492 21.0938 122.237 21.0938C119.982 21.0938 118.154 23.4437 118.154 26.3425C118.154 29.2413 119.982 31.5912 122.237 31.5912Z" fill="white"/>
<path d="M18.6293 31.08C18.6119 31.1401 18.597 31.2002 18.5796 31.2628C17.9782 33.4926 17.6602 35.8326 17.6602 38.2453C17.6602 43.6243 19.2481 48.6426 21.9915 52.8767C21.5715 51.396 21.3479 49.8351 21.3479 48.2242C21.3479 48.2242 21.3479 45.5785 22.158 43.018C23.4701 38.8666 26.8894 35.3115 30.6169 33.0617C32.5626 31.8867 34.6997 31.0198 36.5585 29.707C38.4172 28.3942 40.1393 26.921 41.5583 25.1773C41.9459 24.7013 42.3112 24.2077 42.6492 23.6941C43.2257 22.8172 43.7227 21.8777 44.0383 20.8781C44.8484 18.3126 44.8509 15.6469 44.8509 15.6469C44.8509 13.9908 44.6148 12.3874 44.1774 10.8691C44.1004 10.8716 44.0258 10.8767 43.9488 10.8817C31.7749 11.6408 21.7082 19.9611 18.6293 31.08Z" fill="#0E9548"/>
<path d="M42.6819 33.6523C32.9706 33.6523 25.0957 41.3338 25.0957 50.8066C25.0957 52.4702 25.3392 54.0761 25.7915 55.5969C25.9157 55.5994 26.04 55.6019 26.1642 55.6019C36.1912 55.6019 44.3171 47.6749 44.3171 37.8939C44.3171 36.4458 44.1381 35.0353 43.8027 33.6874C43.4324 33.6649 43.0572 33.6523 42.6819 33.6523Z" fill="#DE242A"/>
<path d="M22.7699 13.2534C26.5207 13.2534 29.5613 10.2865 29.5613 6.6267C29.5613 2.96688 26.5207 0 22.7699 0C19.019 0 15.9784 2.96688 15.9784 6.6267C15.9784 10.2865 19.019 13.2534 22.7699 13.2534Z" fill="#0E9749"/>
<path d="M24.1715 55.9546C23.7117 55.9847 23.2446 55.9997 22.7774 55.9997C10.1984 55.9997 0 46.0509 0 33.7796V21.2001C0 16.4149 3.97846 12.5391 8.87885 12.5391C10.4394 12.5391 11.9081 12.9349 13.1903 13.6264C15.1187 14.6711 16.6047 16.3973 17.3079 18.4693C17.6981 19.6167 17.7577 20.6289 17.7577 21.2001C17.7577 21.2101 17.7577 21.2202 17.7577 21.2327C17.7527 22.5029 17.3129 23.728 16.5773 24.7753C16.0505 25.5269 15.4815 26.4414 14.9472 27.5162C12.9294 31.5673 12.7082 35.2502 12.7082 36.994C12.7082 45.1615 17.3353 52.2642 24.1715 55.9546Z" fill="#068847"/>
<path d="M53.1611 51.2209L51.1309 41.2695H52.9698C53.7177 45.8418 54.0557 47.8687 54.1501 48.9635H54.1625C54.4657 47.1346 55.2361 43.6722 55.7007 41.2695H57.2489C57.6589 43.1786 58.4641 47.0394 58.725 48.8608H58.7374C59.0008 46.6686 59.7861 42.8153 60.0644 41.2695H61.7393L59.5798 51.2209H57.7931C57.3731 49.0161 56.6724 45.8017 56.3916 44.0981H56.3792C56.0884 45.8694 55.3702 49.2191 54.9453 51.2209H53.1611Z" fill="#125F3B"/>
<path d="M63.7402 47.928C63.7402 48.8625 64.1155 49.7745 64.9405 49.7745C65.6313 49.7745 65.8276 49.4287 65.9842 48.9778H67.6417C67.4304 49.8922 66.7769 51.3929 64.8957 51.3929C63.0146 51.3929 62.0703 49.554 62.0703 47.5923C62.0703 45.2498 63.0345 43.5762 64.9554 43.5762C67.0105 43.5762 67.7087 45.4327 67.7087 47.2966C67.7087 47.5497 67.7087 47.7125 67.6864 47.9255H63.7377L63.7402 47.928ZM66.0513 46.6578C66.0388 45.7884 65.7605 45.0568 64.9529 45.0568C64.1453 45.0568 63.8396 45.7408 63.7725 46.6578H66.0488H66.0513Z" fill="#125F3B"/>
<path d="M68.8516 51.2187V40.6836H70.509V51.2187H68.8516Z" fill="#125F3B"/>
<path d="M72.3683 51.2194V45.3043H71.4961V43.7484H72.3683V43.092C72.3683 41.5487 72.9821 40.5391 74.2768 40.5391C74.5526 40.5391 74.898 40.5691 75.0471 40.6268V42.2602C74.9552 42.2402 74.8309 42.2252 74.6968 42.2252C74.2072 42.2252 74.0258 42.4507 74.0258 43.2499V43.7509H75.072V45.3068H74.0258V51.222H72.3683V51.2194Z" fill="#125F3B"/>
<path d="M80.9141 49.2905C80.9141 50.002 80.9613 51.0393 80.9961 51.2197H79.4132C79.366 51.0718 79.3312 50.6785 79.3287 50.4906C79.1125 50.9115 78.705 51.395 77.6463 51.395C76.2026 51.395 75.5938 50.21 75.5938 49.0525C75.5938 47.3514 76.6896 46.5647 78.444 46.5647H79.2989V46.1087C79.2989 45.5776 79.1448 45.0539 78.3769 45.0539C77.6762 45.0539 77.5246 45.4247 77.4475 45.9659H75.8721C75.9615 44.6381 76.62 43.5632 78.4391 43.5783C80.0419 43.5908 80.9141 44.3725 80.9141 46.1513V49.293V49.2905ZM79.2989 47.8199H78.623C77.624 47.8199 77.2537 48.2007 77.2537 48.9197C77.2537 49.4609 77.5196 49.9169 78.116 49.9169C79.1696 49.9169 79.2989 49.0024 79.2989 48.0153V47.8199Z" fill="#125F3B"/>
<path d="M82.4148 45.7759C82.4148 45.0343 82.4148 44.3754 82.4023 43.749H84.0275C84.0499 43.9169 84.0698 44.6585 84.0698 45.0619C84.3332 44.2075 84.9718 43.5837 85.9907 43.5762V45.5504C84.7879 45.5103 84.0698 45.9162 84.0698 47.9631V51.2201H82.4123V45.7759H82.4148Z" fill="#125F3B"/>
<path d="M88.2416 47.928C88.2416 48.8625 88.6169 49.7745 89.4419 49.7745C90.1327 49.7745 90.329 49.4287 90.4856 48.9778H92.1456C91.9343 49.8922 91.2808 51.3929 89.3996 51.3929C87.5185 51.3929 86.5742 49.554 86.5742 47.5923C86.5742 45.2498 87.5384 43.5762 89.4593 43.5762C91.5144 43.5762 92.2126 45.4327 92.2126 47.2966C92.2126 47.5497 92.2126 47.7125 92.1903 47.9255H88.2392L88.2416 47.928ZM90.5527 46.6578C90.5403 45.7884 90.2619 45.0568 89.4543 45.0568C88.6467 45.0568 88.341 45.7408 88.2739 46.6578H90.5502H90.5527Z" fill="#125F3B"/>
<path d="M96.3457 41.2695H101.91V43.0333H98.028V45.471H101.664V47.2348H98.028V51.2209H96.3457V41.2695Z" fill="#125F3B"/>
<path d="M108.542 47.4715C108.542 49.7313 107.459 51.3949 105.563 51.3949C103.667 51.3949 102.623 49.7413 102.623 47.5116C102.623 45.2818 103.739 43.5781 105.64 43.5781C107.402 43.5781 108.542 45.1289 108.542 47.4715ZM104.305 47.484C104.305 48.9221 104.8 49.7739 105.6 49.7739C106.4 49.7739 106.862 48.9221 106.862 47.4965C106.862 45.9332 106.403 45.1941 105.578 45.1941C104.81 45.1941 104.308 45.9056 104.308 47.484H104.305Z" fill="#125F3B"/>
<path d="M114.951 49.0494C114.951 49.7685 114.951 50.5526 114.963 51.2191H113.341C113.318 51.0186 113.306 50.6178 113.296 50.3572C112.941 51.1063 112.411 51.3919 111.648 51.3919C110.428 51.3919 109.65 50.4674 109.65 48.6135V43.748H111.305V48.2001C111.305 49.0244 111.509 49.7058 112.227 49.7058C112.983 49.7058 113.296 49.2022 113.296 47.7241V43.748H114.953V49.0494H114.951Z" fill="#125F3B"/>
<path d="M116.454 45.6325C116.454 44.9962 116.454 44.3022 116.441 43.751H118.047C118.079 43.9439 118.101 44.4625 118.111 44.703C118.315 44.2345 118.8 43.5781 119.848 43.5781C121.051 43.5781 121.831 44.5928 121.831 46.4693V51.222H120.174V46.6998C120.174 45.8605 119.95 45.2517 119.22 45.2517C118.489 45.2517 118.111 45.7403 118.111 47.0606V51.2245H116.454V45.635V45.6325Z" fill="#125F3B"/>
<path d="M128.793 40.6836V49.1668C128.793 49.8457 128.793 50.5372 128.805 51.2187H127.212C127.18 50.9957 127.148 50.6074 127.138 50.4395C126.849 51.0283 126.333 51.394 125.44 51.394C123.927 51.394 122.963 49.8783 122.963 47.5458C122.963 45.2133 123.987 43.5773 125.681 43.5773C126.544 43.5773 127.006 43.9556 127.138 44.2913V40.6861H128.795L128.793 40.6836ZM124.665 47.4907C124.665 48.9463 125.12 49.7355 125.93 49.7355C127.071 49.7355 127.2 48.5504 127.2 47.4756C127.2 46.1979 127.056 45.2308 125.972 45.2308C125.102 45.2308 124.663 46.0776 124.663 47.4907H124.665Z" fill="#125F3B"/>
<path d="M135.182 49.2905C135.182 50.002 135.229 51.0393 135.264 51.2197H133.681C133.634 51.0718 133.599 50.6785 133.596 50.4906C133.38 50.9115 132.973 51.395 131.914 51.395C130.47 51.395 129.861 50.21 129.861 49.0525C129.861 47.3514 130.957 46.5647 132.712 46.5647H133.566V46.1087C133.566 45.5776 133.412 45.0539 132.645 45.0539C131.944 45.0539 131.792 45.4247 131.715 45.9659H130.14C130.229 44.6381 130.888 43.5632 132.707 43.5783C134.309 43.5908 135.182 44.3725 135.182 46.1513V49.293V49.2905ZM133.566 47.8199H132.891C131.892 47.8199 131.521 48.2007 131.521 48.9197C131.521 49.4609 131.787 49.9169 132.384 49.9169C133.437 49.9169 133.566 49.0024 133.566 48.0153V47.8199Z" fill="#125F3B"/>
<path d="M135.982 43.7489H136.904V41.7246H138.562V43.7489H139.735V45.3048H138.562V48.9927C138.562 49.5589 138.701 49.7794 139.196 49.7794C139.287 49.7794 139.449 49.7794 139.573 49.7568V51.1799C139.245 51.3202 138.793 51.3227 138.46 51.3227C137.292 51.3227 136.907 50.5435 136.907 49.2357V45.3048H135.985V43.7489H135.982Z" fill="#125F3B"/>
<path d="M140.762 40.6836H142.419V42.5275H140.762V40.6836ZM140.762 43.7477H142.419V51.2187H140.762V43.7477Z" fill="#125F3B"/>
<path d="M149.476 47.4715C149.476 49.7313 148.392 51.3949 146.496 51.3949C144.6 51.3949 143.557 49.7413 143.557 47.5116C143.557 45.2818 144.675 43.5781 146.573 43.5781C148.335 43.5781 149.476 45.1289 149.476 47.4715ZM145.236 47.484C145.236 48.9221 145.731 49.7739 146.531 49.7739C147.331 49.7739 147.794 48.9221 147.794 47.4965C147.794 45.9332 147.334 45.1941 146.509 45.1941C145.741 45.1941 145.239 45.9056 145.239 47.484H145.236Z" fill="#125F3B"/>
<path d="M150.626 45.6325C150.626 44.9962 150.626 44.3022 150.613 43.751H152.219C152.251 43.9439 152.273 44.4625 152.283 44.703C152.487 44.2345 152.972 43.5781 154.02 43.5781C155.223 43.5781 156.003 44.5928 156.003 46.4693V51.222H154.346V46.6998C154.346 45.8605 154.122 45.2517 153.391 45.2517C152.661 45.2517 152.283 45.7403 152.283 47.0606V51.2245H150.626V45.635V45.6325Z" fill="#125F3B"/>
<path d="M115.688 18.0872C115.348 18.3252 115.04 18.6058 114.756 18.914C113.906 18.3578 113.3 17.8041 112.888 17.2805C112.294 16.5489 112.058 15.8775 111.963 15.2887C111.759 13.9609 112.343 13.0264 112.96 11.2526C113.114 10.8166 113.273 10.3156 113.412 9.75187C114.033 7.34671 114.031 5.27728 113.931 3.92188C115.847 5.43261 116.625 6.94084 116.98 8.06826C116.975 8.07828 116.97 8.0883 116.975 8.10584C117.092 10.2329 115.378 11.8138 115.226 14.8378C115.214 15.1484 115.221 15.4416 115.231 15.7372C115.236 15.885 115.251 16.0353 115.271 16.1781C115.301 16.4562 115.345 16.7293 115.39 16.9748C115.425 17.1101 115.45 17.2429 115.482 17.3632C115.537 17.6162 115.614 17.8517 115.691 18.0872H115.688Z" fill="url(#paint0_linear_9434_9175)"/>
<path d="M120.645 15.9666C120.608 16.0392 120.565 16.1244 120.533 16.2146C120.508 16.1369 120.493 16.0618 120.479 15.9891C119.857 16.0618 119.253 16.2071 118.657 16.41C118.421 16.4902 118.207 16.5804 117.979 16.6781C117.765 16.7683 117.556 16.876 117.357 16.9863C117.166 16.6155 117.044 16.2372 116.96 15.8639C116.93 15.7436 116.91 15.6284 116.895 15.5006C116.865 15.3002 116.845 15.1072 116.843 14.9068C116.843 14.8818 116.843 14.8542 116.843 14.8291C116.828 14.546 116.848 14.278 116.87 13.9999C116.888 13.7844 116.91 13.5589 116.942 13.3384C116.977 12.9852 117.037 12.6344 117.091 12.2662C117.114 12.1183 117.136 11.9705 117.156 11.8252C117.238 11.2214 117.3 10.6051 117.283 9.96372C117.275 9.59042 117.236 9.20209 117.156 8.81877C117.126 8.61834 117.082 8.42542 117.024 8.22499C117.014 8.19242 117.005 8.16236 116.995 8.12979C116.99 8.11476 116.985 8.09722 116.985 8.07217C116.627 6.94475 115.851 5.43652 113.936 3.92578C115.948 4.46945 117.661 5.29872 118.988 6.27832C120.113 7.09006 120.951 8.00953 121.443 8.94153C121.55 9.13945 121.649 9.35993 121.731 9.56035L121.793 9.74826L121.788 9.75828C121.808 9.82091 121.835 9.87353 121.845 9.93115C122.37 11.8653 121.905 13.4136 121.905 13.4136C121.676 14.1828 121.381 14.511 120.966 15.3152C120.881 15.483 120.787 15.6735 120.69 15.8889C120.67 15.9039 120.667 15.9315 120.652 15.9616L120.645 15.9666Z" fill="url(#paint1_linear_9434_9175)"/>
<path d="M117.357 16.9865C117.273 17.024 117.186 17.0716 117.111 17.1142C116.609 17.3898 116.14 17.708 115.687 18.0888C115.61 17.8533 115.533 17.6178 115.479 17.3648C115.449 17.2445 115.424 17.1117 115.387 16.9764C115.342 16.7309 115.297 16.4578 115.267 16.1797C115.248 16.0369 115.233 15.8866 115.228 15.7388C115.22 15.4456 115.21 15.15 115.223 14.8393C115.374 11.8179 117.086 10.2345 116.972 8.10742C116.982 8.11243 116.987 8.12747 116.987 8.12747C116.997 8.16004 117.007 8.1901 117.017 8.22267C117.074 8.4231 117.119 8.61601 117.149 8.81644C117.228 9.19976 117.268 9.5881 117.275 9.9614C117.293 10.6028 117.231 11.2166 117.149 11.8229C117.126 11.9707 117.104 12.1185 117.084 12.2638C117.029 12.6321 116.97 12.9854 116.935 13.3361C116.903 13.5566 116.88 13.7821 116.863 13.9975C116.84 14.2756 116.823 14.5437 116.835 14.8268C116.835 14.8519 116.835 14.8794 116.835 14.9045C116.84 15.1049 116.858 15.2978 116.888 15.4983C116.903 15.6235 116.922 15.7388 116.952 15.8615C117.039 16.2348 117.161 16.6106 117.35 16.9839L117.357 16.9865Z" fill="white"/>
<path d="M118.656 16.4087C118.42 16.4889 118.207 16.5791 117.978 16.6768C117.764 16.767 117.555 16.8747 117.357 16.985C117.272 17.0225 117.185 17.0701 117.111 17.1127C115.838 15.6346 115.577 14.422 115.615 13.5175C115.674 12.2298 116.385 11.4381 117.28 9.9599C117.543 9.51144 117.839 9.00034 118.134 8.38402C118.482 7.66247 118.763 6.94594 118.982 6.27701C119.454 4.89154 119.693 3.66641 119.814 2.75195C121.37 4.62346 121.832 6.26448 121.954 7.44701C121.949 7.45703 121.954 7.47207 121.949 7.48459C121.867 8.01072 121.681 8.48424 121.439 8.94272C121.425 8.97529 121.412 8.99533 121.387 9.02289C121.298 9.20328 121.186 9.37114 121.082 9.55653C121.062 9.59912 121.034 9.62418 121.012 9.66677C120.806 9.97243 120.592 10.3006 120.371 10.6363C120.356 10.6689 120.334 10.6839 120.319 10.7165C120.187 10.9019 120.06 11.1023 119.946 11.3078C119.809 11.5283 119.673 11.7763 119.546 12.0293C119.292 12.5354 119.064 13.0941 118.9 13.7355C118.83 14.0036 118.781 14.2566 118.743 14.5147C118.738 14.5247 118.743 14.5397 118.738 14.5522C118.701 14.7827 118.679 15.0107 118.656 15.2362C118.644 15.4416 118.639 15.6346 118.641 15.835C118.634 16.0304 118.654 16.2233 118.664 16.4137L118.656 16.4087Z" fill="url(#paint2_linear_9434_9175)"/>
<path d="M125.691 13.6915C125.47 14.1074 125.254 14.383 124.991 14.6736L124.981 14.6936C124.924 14.7563 124.859 14.8314 124.787 14.8991C124.678 15.0419 124.541 15.1847 124.399 15.3651C124.205 15.5981 124.004 15.8661 123.795 16.1843L123.785 16.1793C123.457 16.1067 123.147 16.0566 122.829 16.0165C122.116 15.9112 121.407 15.8987 120.714 15.9614C120.689 15.9614 120.672 15.9664 120.647 15.9664C120.61 16.039 120.567 16.1242 120.535 16.2144C120.51 16.1367 120.495 16.0616 120.48 15.9889C120.431 15.7534 120.406 15.5154 120.391 15.2849L120.396 15.2749C120.391 15.2323 120.381 15.2022 120.386 15.1646C120.381 14.9918 120.386 14.8239 120.396 14.6561C120.403 14.4882 120.423 14.3153 120.463 14.1349C120.485 13.9621 120.523 13.7817 120.565 13.6188C120.597 13.451 120.657 13.2831 120.699 13.1178C120.95 12.2534 121.325 11.4016 121.596 10.4946C121.633 10.3694 121.666 10.2516 121.698 10.1364C121.735 10.0111 121.763 9.87832 121.785 9.75806L121.79 9.74804C121.822 9.6328 121.837 9.52256 121.86 9.3998C121.897 9.22192 121.919 9.04654 121.937 8.85864C121.969 8.66322 121.976 8.47031 121.986 8.26487C121.976 8.25986 121.981 8.24983 121.986 8.23981C121.986 8.02936 121.974 7.82392 121.964 7.60846C121.959 7.56587 121.959 7.54081 121.959 7.51326L121.949 7.48069C121.949 7.48069 121.949 7.45563 121.954 7.44311C121.832 6.26057 121.37 4.61956 119.814 2.74805C121.683 3.7076 123.206 4.89014 124.307 6.14031C125.299 7.24268 125.952 8.40016 126.196 9.46995C126.268 9.74303 126.308 10.0011 126.325 10.2466C126.357 10.6976 126.345 11.1135 126.3 11.4868C126.295 11.4968 126.3 11.5118 126.3 11.5118L126.295 11.5218C126.146 12.8322 125.691 13.684 125.691 13.684V13.6915Z" fill="url(#paint3_linear_9434_9175)"/>
<path d="M120.479 15.9887C119.857 16.0614 119.253 16.2067 118.657 16.4096C118.647 16.2217 118.627 16.0263 118.635 15.8309C118.63 15.6304 118.637 15.4375 118.65 15.2321C118.672 15.0066 118.694 14.7811 118.732 14.5481C118.737 14.5381 118.732 14.5231 118.737 14.5105C118.774 14.2525 118.824 13.9994 118.893 13.7314C119.06 13.09 119.286 12.5313 119.539 12.0252C119.666 11.7722 119.798 11.5342 119.939 11.3037C120.056 11.0982 120.183 10.8978 120.312 10.7124C120.327 10.6798 120.349 10.6648 120.364 10.6322C120.585 10.294 120.802 9.9683 121.005 9.66265C121.028 9.62005 121.053 9.595 121.075 9.55241C121.179 9.36701 121.291 9.19915 121.381 9.01877C121.408 8.99121 121.418 8.97116 121.433 8.93859C121.676 8.48011 121.86 8.0066 121.942 7.48047L121.952 7.51304C121.952 7.53809 121.952 7.56565 121.957 7.60824C121.967 7.8237 121.979 8.02914 121.979 8.2396C121.975 8.24962 121.97 8.25964 121.979 8.26465C121.967 8.47009 121.962 8.663 121.93 8.85842C121.912 9.04883 121.89 9.2217 121.853 9.39958C121.83 9.51984 121.815 9.63008 121.783 9.74783L121.778 9.75785C121.756 9.87811 121.728 10.0109 121.691 10.1362C121.659 10.2514 121.627 10.3667 121.589 10.4944C121.318 11.3989 120.941 12.2532 120.692 13.1175C120.65 13.2804 120.59 13.4483 120.558 13.6186C120.516 13.7815 120.479 13.9594 120.456 14.1347C120.419 14.3126 120.397 14.488 120.389 14.6558C120.382 14.8237 120.377 14.9916 120.379 15.1644C120.374 15.202 120.384 15.2321 120.389 15.2747L120.384 15.2847C120.399 15.5152 120.421 15.7532 120.474 15.9887H120.479Z" fill="white"/>
<path d="M127.711 7.48705C127.626 7.65491 127.527 7.83028 127.42 7.98812C127.388 8.0257 127.368 8.06829 127.35 8.09836C127.256 8.23615 127.152 8.36643 127.04 8.50924C126.776 8.82742 126.498 9.1481 126.195 9.4713C125.827 9.86714 125.445 10.2705 125.072 10.729C124.977 10.8392 124.883 10.952 124.798 11.0672C124.741 11.1298 124.694 11.2 124.642 11.2777C124.537 11.4105 124.443 11.5457 124.359 11.6885C124.279 11.7938 124.212 11.904 124.142 12.0168C123.931 12.36 123.747 12.7283 123.566 13.1392C123.434 13.4548 123.322 13.7555 123.23 14.0661C123.151 14.3042 123.086 14.5346 123.034 14.7727C122.969 15.0307 122.927 15.2988 122.887 15.5568C122.86 15.7147 122.838 15.8625 122.828 16.0153C122.115 15.9101 121.406 15.8976 120.713 15.9602C120.698 15.9402 120.683 15.9176 120.683 15.8926C120.569 15.6771 120.472 15.4842 120.39 15.2837L120.395 15.2737C119.878 14.0536 119.873 13.0765 120.015 12.3274C120.246 11.2175 120.865 10.5261 121.727 9.55899C121.764 9.51138 121.816 9.45877 121.859 9.40115C122.388 8.80988 123.004 8.10086 123.665 7.1413C123.896 6.80809 124.118 6.47237 124.306 6.14417C125.459 4.25512 126.113 2.51389 126.471 1.28125C127.85 3.60623 128.066 5.48025 127.992 6.79807L127.977 6.83064C127.902 7.05612 127.813 7.28912 127.711 7.48955V7.48705Z" fill="url(#paint4_linear_9434_9175)"/>
<path d="M131.387 13.6472C131.166 14.0631 130.987 14.2911 130.987 14.2911C130.694 14.6969 130.43 14.935 130.122 15.1905C129.876 15.3959 129.603 15.6039 129.272 15.8995C128.78 16.338 128.181 16.9367 127.558 17.7435C127.381 17.6282 127.2 17.5255 127.004 17.4278C126.884 17.3551 126.75 17.2875 126.613 17.2198C126.074 16.9493 125.55 16.7263 125.03 16.5459L124.968 16.5158C124.948 16.4256 124.938 16.343 124.929 16.2578C124.919 16.1726 124.914 16.0799 124.914 15.9997C124.904 15.8619 124.894 15.7266 124.906 15.6014C124.904 15.3233 124.931 15.0602 124.968 14.8022C124.973 14.7646 124.978 14.7295 124.986 14.6919L124.996 14.6719C125.018 14.499 125.065 14.3236 125.107 14.1608C125.112 14.1232 125.13 14.0931 125.135 14.0556C125.187 13.8977 125.232 13.7349 125.294 13.5821C125.341 13.4342 125.401 13.2914 125.473 13.1461C125.706 12.6025 126.002 12.0663 126.295 11.5277L126.3 11.5176L126.328 11.465L126.333 11.455C126.817 10.5906 127.319 9.69372 127.645 8.6565C127.714 8.44104 127.774 8.22057 127.821 7.99258C127.891 7.67189 127.945 7.32866 127.98 6.9779C127.975 6.93531 127.98 6.90024 127.98 6.87268C127.99 6.85264 127.98 6.82007 127.99 6.80002C128.067 5.47969 127.851 3.60568 126.469 1.2832C128.837 3.03446 130.557 5.09136 131.481 7.03052C132.103 8.3283 132.376 9.57346 132.274 10.6558C132.257 10.8712 132.229 11.0817 132.182 11.2821C132.003 12.3118 131.66 13.1286 131.385 13.6522L131.387 13.6472Z" fill="url(#paint5_linear_9434_9175)"/>
<path d="M124.965 16.5164C124.565 16.3811 124.18 16.2684 123.795 16.1832L123.785 16.1782C123.457 16.1055 123.146 16.0554 122.828 16.0153C122.841 15.8625 122.86 15.7147 122.888 15.5568C122.925 15.2988 122.97 15.0307 123.034 14.7726C123.089 14.5346 123.151 14.3041 123.231 14.0661C123.32 13.7555 123.432 13.4548 123.566 13.1391C123.745 12.7283 123.931 12.36 124.143 12.0167C124.212 11.9065 124.279 11.7963 124.359 11.6885C124.443 11.5457 124.538 11.4079 124.642 11.2777C124.694 11.1975 124.742 11.1298 124.799 11.0672C124.883 10.952 124.978 10.8392 125.072 10.729C125.445 10.2705 125.827 9.86714 126.195 9.47129C126.498 9.1481 126.777 8.82741 127.04 8.50923C127.15 8.36642 127.256 8.23364 127.351 8.09835C127.366 8.06578 127.388 8.02569 127.42 7.98811C127.525 7.83027 127.627 7.6549 127.711 7.48704C127.811 7.28661 127.902 7.05611 127.977 6.82812C127.982 6.84316 127.987 6.86069 127.982 6.87072C127.982 6.89577 127.977 6.93335 127.982 6.97594C127.947 7.3292 127.895 7.66993 127.823 7.99062C127.776 8.2161 127.716 8.43908 127.647 8.65454C127.321 9.69176 126.821 10.5887 126.334 11.453L126.329 11.4631L126.302 11.5157L126.297 11.5257C126.001 12.0643 125.706 12.6005 125.475 13.1442C125.4 13.292 125.343 13.4348 125.296 13.5801C125.231 13.7329 125.189 13.8958 125.137 14.0536C125.132 14.0912 125.114 14.1213 125.109 14.1588C125.067 14.3217 125.017 14.4946 124.998 14.6699L124.988 14.69C124.983 14.7276 124.978 14.7626 124.97 14.8002C124.933 15.0583 124.903 15.3213 124.908 15.5994C124.896 15.7247 124.908 15.8625 124.916 15.9978C124.916 16.0754 124.92 16.1706 124.93 16.2558C124.94 16.341 124.95 16.4237 124.97 16.5139L124.965 16.5164Z" fill="white"/>
<path d="M134.162 9.32854L134.147 9.36111C133.662 10.1728 132.966 10.734 132.186 11.2802C131.008 12.102 129.639 12.8937 128.451 14.5146C127.745 15.4817 127.298 16.4814 127.005 17.4284C126.886 17.3557 126.751 17.2881 126.615 17.2204C126.075 16.9499 125.551 16.7269 125.032 16.5465C124.987 16.3536 124.945 16.1732 124.915 16.0003C124.84 15.607 124.806 15.2337 124.793 14.898C124.788 14.0787 124.96 13.4248 125.186 12.9212C125.462 12.3199 125.829 11.899 126.304 11.4907C126.309 11.4806 126.314 11.4706 126.331 11.4631L126.336 11.4531C127.196 10.7215 128.367 10.0676 129.892 8.68215C130.489 8.13598 131.021 7.57227 131.488 7.02861C132.626 5.73834 133.411 4.51071 133.923 3.59375C134.743 6.17929 134.544 8.05581 134.164 9.32854H134.162Z" fill="url(#paint6_linear_9434_9175)"/>
<path d="M136.596 15.8687C135.995 16.8332 135.394 17.3368 135.394 17.3368C134.713 17.918 134.248 18.0433 133.376 18.5168C132.901 18.7674 132.335 19.1181 131.723 19.5891L131.718 19.5991C131.383 19.8547 131.032 20.1403 130.67 20.4735C130.483 20.223 130.292 19.9825 130.071 19.752C129.75 19.4062 129.42 19.083 129.03 18.7699L129.02 18.7649C129.02 18.4767 129.03 18.1761 129.067 17.8654C129.199 16.7981 129.596 15.9538 130.12 15.1897C130.493 14.651 130.936 14.16 131.385 13.6464C132.419 12.4889 133.532 11.3064 134.111 9.50001C134.116 9.46243 134.139 9.41983 134.139 9.39478C134.144 9.38476 134.139 9.36973 134.144 9.3572L134.159 9.32463C134.536 8.0519 134.738 6.17288 133.918 3.58984C136.258 6.32821 137.531 9.28204 137.712 11.6947C137.779 12.5716 137.69 13.3708 137.461 14.0598C137.223 14.7713 136.914 15.3826 136.594 15.8687H136.596Z" fill="url(#paint7_linear_9434_9175)"/>
<path d="M129.065 17.8665C129.025 18.1772 129.02 18.4753 129.017 18.7659C128.578 18.4001 128.091 18.0519 127.556 17.7462C127.38 17.631 127.198 17.5283 127.002 17.4306C127.295 16.4835 127.745 15.4814 128.448 14.5168C129.636 12.8958 131.008 12.1042 132.183 11.2824C132.964 10.7362 133.659 10.175 134.144 9.36328C134.139 9.3733 134.144 9.38833 134.139 9.40086C134.139 9.42591 134.117 9.46851 134.112 9.50609C133.533 11.3125 132.419 12.495 131.386 13.6525C130.933 14.1661 130.493 14.6571 130.121 15.1958C129.594 15.9599 129.199 16.8042 129.067 17.8715L129.065 17.8665Z" fill="white"/>
<path d="M140.801 13.9767C140.801 13.9767 140.781 13.9918 140.764 13.9968C139.653 15.049 138.202 15.2745 136.594 15.8683C135.722 16.184 134.797 16.6049 133.87 17.3139C132.963 18.0079 132.255 18.7996 131.718 19.5863L131.713 19.5963C131.418 20.0297 131.162 20.4657 130.955 20.879C130.868 20.7437 130.769 20.6009 130.667 20.4707C130.481 20.2201 130.289 19.9796 130.068 19.7491C129.827 17.0984 130.486 15.6754 131.211 14.8236C132.451 13.413 134.017 13.5233 136.907 12.1077C137.183 11.9699 137.446 11.8372 137.712 11.6919C139.745 10.587 141.238 9.31676 142.197 8.38477C142.247 11.1106 141.517 12.8543 140.801 13.9742V13.9767Z" fill="url(#paint8_linear_9434_9175)"/>
<path d="M142.602 19.4855C141.332 21.3269 139.697 22.036 139.697 22.036C138.885 22.3942 138.4 22.3792 137.433 22.5846C136.382 22.8101 134.891 23.2611 133.129 24.3133C133.104 24.3234 133.07 24.3409 133.045 24.3584C132.928 23.454 132.903 22.1011 133.507 20.7181C134.938 17.4186 138.512 17.3409 140.701 14.119C140.718 14.0839 140.743 14.0589 140.761 14.0313C140.778 14.0138 140.786 13.9887 140.803 13.9712C141.519 12.8613 142.247 11.1075 142.202 8.38672C144.183 12.9114 144.15 17.2557 142.602 19.4855Z" fill="url(#paint9_linear_9434_9175)"/>
<path d="M140.701 14.1239C138.516 17.3433 134.938 17.4134 133.504 20.7155C132.9 22.101 132.928 23.4463 133.042 24.3583L133.047 24.5312L133.064 25.9768L133.059 25.9868L133.074 27.7731L132.366 27.7882C132.426 27.3572 132.46 26.9263 132.468 26.4954L132.473 26.4854C132.515 25.5458 132.418 24.6514 132.214 23.7871C131.966 22.7273 131.546 21.7527 130.957 20.8783C131.163 20.4675 131.422 20.029 131.715 19.5956L131.72 19.5856C132.257 18.7989 132.965 18.0072 133.872 17.3132C134.799 16.6042 135.723 16.1833 136.595 15.8676C138.203 15.2738 139.654 15.0483 140.765 13.9961C140.77 14.0111 140.765 14.0211 140.76 14.0337C140.75 14.0537 140.723 14.0813 140.703 14.1239H140.701Z" fill="white"/>
<path d="M155.208 17.2238C153.56 20.591 151.585 22.2796 150.027 23.189C150.012 23.1941 149.984 23.1941 149.97 23.1991C146.886 24.096 144.028 22.0767 139.55 22.8809C136.337 23.4646 133.946 25.1808 132.473 26.4886C132.478 26.451 132.495 26.421 132.5 26.3834C132.547 26.2105 132.592 26.0477 132.634 25.8823C134.061 20.6511 136.188 18.8397 137.885 18.1457C140.256 17.1962 142.092 18.3236 146.468 18.4263C150.198 18.524 153.25 17.82 155.21 17.2188L155.208 17.2238Z" fill="url(#paint10_linear_9434_9175)"/>
<path d="M148.764 31.0979C146.077 32.5485 143.655 32.3807 143.655 32.3807C142.447 32.3055 141.87 31.9773 140.571 31.6165C139.157 31.2257 137.069 30.8299 134.284 31.0052C134.246 31.0002 134.194 31.0002 134.154 31.0052C134.579 29.8202 135.392 28.1441 136.985 26.8313C140.777 23.6921 145.153 25.8642 149.812 23.3037C149.855 23.2712 149.902 23.2561 149.937 23.2336C149.969 23.2236 149.994 23.196 150.026 23.186C151.584 22.2765 153.56 20.5879 155.207 17.2207C154.78 24.0328 152.031 29.3417 148.764 31.0954V31.0979Z" fill="url(#paint11_linear_9434_9175)"/>
<path d="M149.968 23.1963C149.968 23.1963 149.953 23.2288 149.936 23.2338C149.898 23.2539 149.851 23.2714 149.811 23.304C145.152 25.867 140.776 23.6923 136.984 26.8315C135.391 28.1444 134.578 29.8205 134.153 31.0055L132.046 35.212L130.115 34.2474L130.463 33.5509C131.487 31.5066 132.126 29.5849 132.362 27.7911C132.421 27.3602 132.456 26.9293 132.464 26.4983L132.469 26.4883C132.653 26.3305 132.841 26.1601 133.055 25.9897L133.06 25.9797C133.254 25.8269 133.448 25.6716 133.652 25.5237C133.746 25.4386 133.86 25.3659 133.977 25.2907C133.982 25.2807 134.004 25.2632 134.019 25.2582C134.146 25.163 134.285 25.0628 134.432 24.9776C134.452 24.9625 134.484 24.95 134.504 24.935C134.509 24.925 134.514 24.9149 134.531 24.9074C134.745 24.7646 134.966 24.6368 135.2 24.5041C135.389 24.3863 135.597 24.2811 135.811 24.1633C136.114 23.998 136.437 23.8451 136.778 23.7099C137.029 23.5971 137.285 23.5019 137.55 23.4117C137.682 23.3591 137.821 23.309 137.958 23.2714C138.095 23.2338 138.229 23.1963 138.37 23.1487C138.746 23.0459 139.143 22.9557 139.543 22.8781C144.024 22.0713 146.879 24.0932 149.963 23.1963H149.968Z" fill="white"/>
</g>
<defs>
<linearGradient id="paint0_linear_9434_9175" x1="111.038" y1="9.75409" x2="118.087" y2="13.2527" gradientUnits="userSpaceOnUse">
<stop stop-color="#70AE43"/>
<stop offset="1" stop-color="#006838"/>
</linearGradient>
<linearGradient id="paint1_linear_9434_9175" x1="119.485" y1="8.70003" x2="115.59" y2="11.0327" gradientUnits="userSpaceOnUse">
<stop stop-color="#70AE43"/>
<stop offset="1" stop-color="#39B54A"/>
</linearGradient>
<linearGradient id="paint2_linear_9434_9175" x1="116.692" y1="9.04083" x2="121.202" y2="11.2792" gradientUnits="userSpaceOnUse">
<stop stop-color="#70AE43"/>
<stop offset="1" stop-color="#006838"/>
</linearGradient>
<linearGradient id="paint3_linear_9434_9175" x1="123.762" y1="8.27742" x2="119.377" y2="10.9011" gradientUnits="userSpaceOnUse">
<stop stop-color="#70AE43"/>
<stop offset="1" stop-color="#39B54A"/>
</linearGradient>
<linearGradient id="paint4_linear_9434_9175" x1="122.09" y1="7.8635" x2="126.449" y2="10.0266" gradientUnits="userSpaceOnUse">
<stop stop-color="#70AE43"/>
<stop offset="1" stop-color="#006838"/>
</linearGradient>
<linearGradient id="paint5_linear_9434_9175" x1="129.593" y1="7.94335" x2="124.231" y2="11.1536" gradientUnits="userSpaceOnUse">
<stop stop-color="#70AE43"/>
<stop offset="1" stop-color="#39B54A"/>
</linearGradient>
<linearGradient id="paint6_linear_9434_9175" x1="127.17" y1="8.91275" x2="132.946" y2="11.7795" gradientUnits="userSpaceOnUse">
<stop stop-color="#70AE43"/>
<stop offset="1" stop-color="#006838"/>
</linearGradient>
<linearGradient id="paint7_linear_9434_9175" x1="135.285" y1="10.2121" x2="129.03" y2="13.959" gradientUnits="userSpaceOnUse">
<stop stop-color="#70AE43"/>
<stop offset="1" stop-color="#39B54A"/>
</linearGradient>
<linearGradient id="paint8_linear_9434_9175" x1="132.242" y1="12.4507" x2="139.761" y2="16.1816" gradientUnits="userSpaceOnUse">
<stop stop-color="#70AE43"/>
<stop offset="1" stop-color="#006838"/>
</linearGradient>
<linearGradient id="paint9_linear_9434_9175" x1="142.401" y1="12.9218" x2="136.645" y2="22.2145" gradientUnits="userSpaceOnUse">
<stop stop-color="#70AE43"/>
<stop offset="1" stop-color="#39B54A"/>
</linearGradient>
<linearGradient id="paint10_linear_9434_9175" x1="136.099" y1="17.9542" x2="151.142" y2="25.4194" gradientUnits="userSpaceOnUse">
<stop stop-color="#70AE43"/>
<stop offset="1" stop-color="#006838"/>
</linearGradient>
<linearGradient id="paint11_linear_9434_9175" x1="152.672" y1="22.9607" x2="139.853" y2="30.6361" gradientUnits="userSpaceOnUse">
<stop stop-color="#70AE43"/>
<stop offset="1" stop-color="#39B54A"/>
</linearGradient>
<clipPath id="clip0_9434_9175">
<rect width="156" height="56" fill="white"/>
</clipPath>
</defs>
</svg>
